# xmcd
#
# Track frame offsets:
#	150
#	14074
#	30731
#	44961
#	60427
#	73996
#	95968
#	111312
#	125283
#	144873
#	168636
#	181563
#	194566
#	209558
#	223067
#	237790
#	255670
#
# Disc length: 3572 seconds
#
# Revision: 7
# Processed by: cddbd v1.5.2PL0 Copyright (c) Steve Scherf et al.
# Submitted via: EasyCDDAExtractor 10.2.0.1
#
DISCID=0d0df211
DTITLE=David Allan Coe - 17 Greatest Hits
DYEAR=1990
DGENRE=Country
TTITLE0=She Used To Love Me A Lot
TTITLE1=Mona Lisa Lost Her Smile
TTITLE2=The Ride
TTITLE3=Now I Lay Me Down To Cheat
TTITLE4=Tennessee Whiskey
TTITLE5=If That Ain't Country
TTITLE6=Longhaired Redneck
TTITLE7=Jody Like A Melody
TTITLE8=Please Come To Boston
TTITLE9=You Never Even Called Me By My Name
TTITLE10=This Bottle (In My Hand)
TTITLE11=Would You Lay With Me (In A Field Of Stone)
TTITLE12=Jack Daniel's, If You Please
TTITLE13=Take This Job And Shove It
TTITLE14=Wille, Waylon And Me
TTITLE15=Pledging My Love
TTITLE16=Hank WIlliams Junior-Junior
EXTD=YEAR: 1985
EXTT0=
EXTT1=
EXTT2=
EXTT3=
EXTT4=
EXTT5=
EXTT6=
EXTT7=
EXTT8=
EXTT9=
EXTT10=
EXTT11=
EXTT12=
EXTT13=
EXTT14=
EXTT15=
EXTT16=
PLAYORDER=
